<svg xmlns="http://www.w3.org/2000/svg" xmlns:xlink="http://www.w3.org/1999/xlink">

	<path id="twitter" d="M256,25.4500259 C246.580841,29.6272672 236.458451,32.4504868 225.834156,33.7202333 C236.678503,27.2198053 245.00583,16.9269929 248.927437,4.66307685 C238.779765,10.6812633 227.539325,15.0523376 215.57599,17.408298 C205.994835,7.2006971 192.34506,0.822 177.239197,0.822 C148.232605,0.822 124.716076,24.3375931 124.716076,53.3423116 C124.716076,57.4586875 125.181462,61.4673784 126.076652,65.3112644 C82.4258385,63.1210453 43.7257252,42.211429 17.821398,10.4359288 C13.3005011,18.1929938 10.710443,27.2151234 10.710443,36.8402889 C10.710443,55.061526 19.9835254,71.1374907 34.0762135,80.5557137 C25.4660961,80.2832239 17.3681846,77.9207088 10.2862577,73.9869292 C10.2825122,74.2060448 10.2825122,74.4260967 10.2825122,74.647085 C10.2825122,100.094453 28.3867003,121.322443 52.413563,126.14673 C48.0059695,127.347184 43.3661509,127.988612 38.5755734,127.988612 C35.1914554,127.988612 31.9009766,127.659938 28.694773,127.046602 C35.3777973,147.913145 54.7742053,163.097665 77.7569918,163.52185 C59.7820257,177.607983 37.1354036,186.004604 12.5289147,186.004604 C8.28987161,186.004604 4.10888474,185.75646 0,185.271409 C23.2431033,200.173139 50.8507261,208.867532 80.5109185,208.867532 C177.116529,208.867532 229.943977,128.836982 229.943977,59.4326002 C229.943977,57.1552968 229.893412,54.8901664 229.792282,52.6381454 C240.053257,45.2331635 248.958338,35.9825545 256,25.4500259" fill="#888888"></path>


	<path id="instagram" d="M127.999746,23.06353 C162.177385,23.06353 166.225393,23.1936027 179.722476,23.8094161 C192.20235,24.3789926 198.979853,26.4642218 203.490736,28.2166477 C209.464938,30.5386501 213.729395,33.3128586 218.208268,37.7917319 C222.687141,42.2706052 225.46135,46.5350617 227.782844,52.5092638 C229.535778,57.0201472 231.621007,63.7976504 232.190584,76.277016 C232.806397,89.7746075 232.93647,93.8226147 232.93647,128.000254 C232.93647,162.177893 232.806397,166.225901 232.190584,179.722984 C231.621007,192.202858 229.535778,198.980361 227.782844,203.491244 C225.46135,209.465446 222.687141,213.729903 218.208268,218.208776 C213.729395,222.687649 209.464938,225.461858 203.490736,227.783352 C198.979853,229.536286 192.20235,231.621516 179.722476,232.191092 C166.227425,232.806905 162.179418,232.936978 127.999746,232.936978 C93.8200742,232.936978 89.772067,232.806905 76.277016,232.191092 C63.7971424,231.621516 57.0196391,229.536286 52.5092638,227.783352 C46.5345536,225.461858 42.2700971,222.687649 37.7912238,218.208776 C33.3123505,213.729903 30.538142,209.465446 28.2166477,203.491244 C26.4637138,198.980361 24.3784845,192.202858 23.808908,179.723492 C23.1930946,166.225901 23.0630219,162.177893 23.0630219,128.000254 C23.0630219,93.8226147 23.1930946,89.7746075 23.808908,76.2775241 C24.3784845,63.7976504 26.4637138,57.0201472 28.2166477,52.5092638 C30.538142,46.5350617 33.3123505,42.2706052 37.7912238,37.7917319 C42.2700971,33.3128586 46.5345536,30.5386501 52.5092638,28.2166477 C57.0196391,26.4642218 63.7971424,24.3789926 76.2765079,23.8094161 C89.7740994,23.1936027 93.8221066,23.06353 127.999746,23.06353 M127.999746,0 C93.2367791,0 88.8783247,0.147348072 75.2257637,0.770274749 C61.601148,1.39218523 52.2968794,3.55566141 44.1546281,6.72008828 C35.7374966,9.99121548 28.5992446,14.3679613 21.4833489,21.483857 C14.3674532,28.5997527 9.99070739,35.7380046 6.71958019,44.1551362 C3.55515331,52.2973875 1.39167714,61.6016561 0.769766653,75.2262718 C0.146839975,88.8783247 0,93.2372872 0,128.000254 C0,162.763221 0.146839975,167.122183 0.769766653,180.774236 C1.39167714,194.398852 3.55515331,203.703121 6.71958019,211.845372 C9.99070739,220.261995 14.3674532,227.400755 21.4833489,234.516651 C28.5992446,241.632547 35.7374966,246.009293 44.1546281,249.28042 C52.2968794,252.444847 61.601148,254.608323 75.2257637,255.230233 C88.8783247,255.85316 93.2367791,256 127.999746,256 C162.762713,256 167.121675,255.85316 180.773728,255.230233 C194.398344,254.608323 203.702613,252.444847 211.844864,249.28042 C220.261995,246.009293 227.400247,241.632547 234.516143,234.516651 C241.632039,227.400755 246.008785,220.262503 249.279912,211.845372 C252.444339,203.703121 254.607815,194.398852 255.229725,180.774236 C255.852652,167.122183 256,162.763221 256,128.000254 C256,93.2372872 255.852652,88.8783247 255.229725,75.2262718 C254.607815,61.6016561 252.444339,52.2973875 249.279912,44.1551362 C246.008785,35.7380046 241.632039,28.5997527 234.516143,21.483857 C227.400247,14.3679613 220.261995,9.99121548 211.844864,6.72008828 C203.702613,3.55566141 194.398344,1.39218523 180.773728,0.770274749 C167.121675,0.147348072 162.762713,0 127.999746,0 Z M127.999746,62.2703115 C91.698262,62.2703115 62.2698034,91.69877 62.2698034,128.000254 C62.2698034,164.301738 91.698262,193.730197 127.999746,193.730197 C164.30123,193.730197 193.729689,164.301738 193.729689,128.000254 C193.729689,91.69877 164.30123,62.2703115 127.999746,62.2703115 Z M127.999746,170.667175 C104.435741,170.667175 85.3328252,151.564259 85.3328252,128.000254 C85.3328252,104.436249 104.435741,85.3333333 127.999746,85.3333333 C151.563751,85.3333333 170.666667,104.436249 170.666667,128.000254 C170.666667,151.564259 151.563751,170.667175 127.999746,170.667175 Z M211.686338,59.6734287 C211.686338,68.1566129 204.809755,75.0337031 196.326571,75.0337031 C187.843387,75.0337031 180.966297,68.1566129 180.966297,59.6734287 C180.966297,51.1902445 187.843387,44.3136624 196.326571,44.3136624 C204.809755,44.3136624 211.686338,51.1902445 211.686338,59.6734287 Z" fill="#888888"></path>

	<g id="linkedin">
		<path d="M501.763599,0 L391.342566,0 C386.065996,0 381.779234,4.18238313 381.779234,9.33927592 L381.779234,120.224619 C381.779234,125.386011 386.065996,129.574692 391.342566,129.574692 L501.763599,129.574692 C507.049167,129.574692 511.355726,125.386011 511.355726,120.224619 L511.355726,9.33927592 C511.355726,4.18238313 507.049167,0 501.763599,0" fill="#888888"></path>
		<path d="M410.603304,17.8390158 C416.749104,17.8390158 421.741329,22.8321406 421.741329,28.9788401 C421.741329,35.1300387 416.749104,40.1249631 410.603304,40.1249631 C404.444907,40.1249631 399.458981,35.1300387 399.458981,28.9788401 C399.458981,22.8321406 404.444907,17.8390158 410.603304,17.8390158 L410.603304,17.8390158 Z M400.990482,48.5779121 L420.208928,48.5779121 L420.208928,110.414735 L400.990482,110.414735 L400.990482,48.5779121 Z" fill="#FFFFFF"></path>
		<path d="M432.262974,48.5779121 L450.699473,48.5779121 L450.699473,57.026362 L450.955023,57.026362 C453.519522,52.1655114 459.789497,47.0392127 469.138671,47.0392127 C488.60007,47.0392127 492.193069,59.8464112 492.193069,76.4958594 L492.193069,110.414735 L472.98812,110.414735 L472.98812,80.3435079 C472.98812,73.1692091 472.855845,63.9460105 463.00097,63.9460105 C452.999424,63.9460105 451.467923,71.7582847 451.467923,79.8243093 L451.467923,110.414735 L432.262974,110.414735 L432.262974,48.5779121" fill="#FFFFFF"></path>
	</g>

	<g id="facebook">
		<path d="M241.871,256.001 C249.673,256.001 256,249.675 256,241.872 L256,14.129 C256,6.325 249.673,0 241.871,0 L14.129,0 C6.324,0 0,6.325 0,14.129 L0,241.872 C0,249.675 6.324,256.001 14.129,256.001 L241.871,256.001" fill="#888888"></path>
		<path d="M176.635,256.001 L176.635,156.864 L209.912,156.864 L214.894,118.229 L176.635,118.229 L176.635,93.561 C176.635,82.375 179.742,74.752 195.783,74.752 L216.242,74.743 L216.242,40.188 C212.702,39.717 200.558,38.665 186.43,38.665 C156.932,38.665 136.738,56.67 136.738,89.736 L136.738,118.229 L103.376,118.229 L103.376,156.864 L136.738,156.864 L136.738,256.001 L176.635,256.001" fill="#FFFFFF"></path>
	</g>


	<g id="npm_full">
    <path d="M0,0 L0,85.4980695 L71.1660232,85.4980695 L71.1660232,99.8301158 L128,99.8301158 L128,85.4980695 L256,85.4980695 L256,0 L0,0 L0,0 Z" fill="#888888"></path>
    <path d="M42.5019305,14.3320463 L14.3320463,14.3320463 L14.3320463,28.6640927 L14.3320463,71.1660232 L42.5019305,71.1660232 L42.5019305,28.6640927 L56.8339768,28.6640927 L56.8339768,71.1660232 L71.1660232,71.1660232 L71.1660232,28.6640927 L71.1660232,14.3320463 L42.5019305,14.3320463 L42.5019305,14.3320463 Z" fill="#FFFFFF"></path>
    <path d="M85.4980695,14.3320463 L85.4980695,68.2007722 L85.4980695,71.1660232 L85.4980695,85.4980695 L114.162162,85.4980695 L114.162162,71.1660232 L142.332046,71.1660232 L142.332046,14.3320463 L85.4980695,14.3320463 L85.4980695,14.3320463 Z M128,56.8339768 L114.162162,56.8339768 L114.162162,28.6640927 L128,28.6640927 L128,56.8339768 L128,56.8339768 Z" fill="#FFFFFF"></path>
    <path d="M184.833977,14.3320463 L156.664093,14.3320463 L156.664093,28.6640927 L156.664093,71.1660232 L184.833977,71.1660232 L184.833977,28.6640927 L199.166023,28.6640927 L199.166023,71.1660232 L213.498069,71.1660232 L213.498069,28.6640927 L227.830116,28.6640927 L227.830116,71.1660232 L242.162162,71.1660232 L242.162162,28.6640927 L242.162162,15.3204633 L242.162162,14.3320463 L184.833977,14.3320463 L184.833977,14.3320463 Z" fill="#FFFFFF"></path>
</g>

	<path id="soundcloud" d="M15.835,47.9c-0.083-0.082-0.145-0.268-0.145-0.393c0-0.145-0.083-1.403-0.186-2.807l-0.186-2.561
	l0.207-4.521c0.206-4.604,0.227-4.769,0.578-4.769c0.062,0,0.186,0.041,0.269,0.124c0.124,0.103,0.186,0.681,0.392,4.562
	l0.248,4.459l-0.248,2.911c-0.145,1.61-0.289,2.973-0.351,3.034c-0.145,0.166-0.393,0.145-0.578-0.02V47.9z M17.94,47.839
	c-0.103-0.145-0.186-1.012-0.33-3.097c-0.165-2.478-0.186-3.18-0.103-5.037c0.041-1.178,0.124-3.51,0.186-5.183
	c0.062-1.672,0.124-3.138,0.145-3.303c0.083-0.537,0.702-0.619,0.826-0.103c0.021,0.103,0.145,2.601,0.269,5.532l0.227,5.348
	l-0.227,2.767c-0.124,1.528-0.227,2.808-0.227,2.87c0,0.164-0.269,0.392-0.454,0.392c-0.104,0-0.227-0.083-0.31-0.206V47.839z
	 M20.088,47.88c-0.145-0.145-0.186-0.372-0.227-1.445c-0.042-0.702-0.104-1.755-0.145-2.333c-0.124-1.465-0.104-3.365,0.041-7.887
	c0.083-2.146,0.145-4.314,0.145-4.851c0.021-1.094,0.104-1.424,0.393-1.507c0.351-0.083,0.619,0.165,0.619,0.599
	c0,0.207,0.103,2.89,0.207,5.946l0.207,5.554l-0.207,2.787c-0.104,1.527-0.207,2.828-0.207,2.891c0,0.164-0.269,0.392-0.475,0.392
	c-0.103,0-0.248-0.083-0.351-0.165V47.88z M22.235,47.88c-0.103-0.124-0.165-0.372-0.207-0.764c-0.31-4.707-0.31-5.038-0.165-9.951
	c0.186-6.771,0.227-7.412,0.392-7.577s0.62-0.165,0.764,0c0.083,0.083,0.145,1.28,0.248,3.964c0.248,7.494,0.269,8.691,0.103,11.148
	c-0.186,2.787-0.206,3.034-0.392,3.199c-0.186,0.186-0.516,0.166-0.723-0.041L22.235,47.88z M24.382,47.859
	c-0.103-0.104-0.186-0.33-0.186-0.475s-0.062-1.383-0.145-2.746c-0.145-2.291-0.145-2.932,0-8.485
	c0.165-6.441,0.165-6.338,0.64-6.441c0.413-0.083,0.682,0.268,0.682,0.908c0,0.289,0.041,1.796,0.083,3.324
	c0.041,1.528,0.103,3.86,0.145,5.183c0.021,1.301,0.062,2.436,0.083,2.498c0.021,0.062-0.042,1.362-0.145,2.89
	c-0.103,1.528-0.186,2.87-0.186,2.974c0,0.247-0.33,0.578-0.619,0.578c-0.124,0-0.289-0.083-0.392-0.207H24.382z M26.591,47.88
	c-0.186-0.186-0.207-0.413-0.392-3.716c-0.103-1.92-0.083-3.943,0.103-10.488c0.104-3.509,0.104-3.571,0.661-3.571
	c0.186,0,0.372,0.062,0.475,0.186c0.186,0.186,0.186,0.33,0.268,3.344c0.021,0.949,0.104,3.262,0.145,5.12
	c0.083,3.034,0.083,3.675-0.083,6.173c-0.165,2.684-0.186,2.787-0.392,2.952c-0.269,0.206-0.599,0.206-0.826,0H26.591z
	 M28.779,47.88c-0.124-0.124-0.186-0.351-0.227-0.764c-0.145-1.59-0.248-5.533-0.207-7.866c0.021-1.445,0.083-3.654,0.104-4.955
	c0.103-5.223,0.145-6.048,0.33-6.234c0.227-0.227,0.681-0.227,0.888,0c0.227,0.227,0.248,0.888,0.454,10.963
	c0.062,3.035-0.145,8.361-0.351,8.732c-0.186,0.352-0.723,0.413-1.012,0.124H28.779z M31.03,47.859
	c-0.145-0.104-0.269-0.31-0.289-0.475c-0.021-0.166-0.104-1.508-0.186-2.994c-0.103-2.126-0.124-3.406-0.062-6.008
	c0.042-1.816,0.104-4.83,0.145-6.688c0.062-4.253,0.104-4.666,0.351-4.914c0.269-0.248,0.661-0.227,0.95,0.041
	c0.207,0.207,0.227,0.289,0.248,1.342c0,0.619,0.021,1.238,0.041,1.362s0.042,1.879,0.083,3.901
	c0.042,2.023,0.083,3.696,0.104,3.717c0.103,0.165,0.021,6.152-0.104,8.01c-0.083,1.156-0.145,2.189-0.145,2.271
	c0,0.227-0.413,0.619-0.681,0.619C31.36,48.045,31.153,47.963,31.03,47.859z M33.032,47.818l-0.228-0.228V36.918V26.244l0.248-0.186
	c0.289-0.227,1.383-0.578,2.478-0.805c1.177-0.227,3.097-0.207,4.315,0.041c4.871,1.012,8.34,4.749,9.125,9.827l0.062,0.33
	l0.806-0.227c0.681-0.186,0.929-0.227,1.816-0.186c1.26,0.062,1.321,0.062,2.146,0.371c3.635,1.383,5.285,5.574,3.531,9.043
	c-0.806,1.61-1.962,2.621-3.717,3.262l-0.66,0.248l-9.827,0.021l-9.827,0.021L33.032,47.818z M13.667,47.735
	c-0.041-0.103-0.165-1.466-0.289-3.015c-0.207-2.725-0.207-2.849-0.062-4.582c0.083-0.971,0.166-2.168,0.207-2.643
	c0.062-0.867,0.207-1.281,0.434-1.281c0.289,0,0.372,0.331,0.62,2.953l0.248,2.684l-0.248,2.85c-0.124,1.568-0.269,2.932-0.31,3.055
	c-0.041,0.145-0.145,0.207-0.31,0.207s-0.248-0.062-0.31-0.207L13.667,47.735z M11.603,47.777c-0.021-0.042-0.165-1.363-0.289-2.932
	l-0.248-2.85l0.248-2.952c0.124-1.631,0.289-3.015,0.331-3.076c0.124-0.145,0.31-0.145,0.434,0c0.062,0.062,0.227,1.425,0.372,3.056
	l0.268,2.932l-0.268,2.849c-0.145,1.569-0.289,2.891-0.31,2.952c-0.041,0.124-0.475,0.166-0.537,0.041V47.777z M9.559,47.55
	c-0.041-0.062-0.186-1.321-0.31-2.808l-0.248-2.705l0.227-2.56c0.124-1.403,0.248-2.746,0.268-2.952
	c0.062-0.413,0.248-0.578,0.434-0.393c0.062,0.062,0.227,1.28,0.393,2.911l0.289,2.808l-0.269,2.705
	c-0.145,1.486-0.31,2.787-0.351,2.91c-0.103,0.228-0.31,0.269-0.434,0.104V47.55z M7.474,46.683
	c-0.021-0.083-0.165-1.218-0.289-2.498l-0.248-2.333l0.268-2.374c0.248-2.271,0.289-2.374,0.475-2.415
	c0.227-0.042,0.206-0.145,0.578,2.725l0.268,2.146l-0.268,2.251c-0.145,1.239-0.31,2.333-0.351,2.456
	c-0.104,0.248-0.331,0.27-0.393,0.042H7.474z M5.554,44.948c-0.021-0.083-0.145-0.784-0.248-1.548L5.12,41.996l0.207-1.486
	c0.103-0.826,0.248-1.549,0.289-1.61c0.206-0.248,0.351,0.145,0.557,1.61L6.4,41.996l-0.227,1.486
	c-0.124,0.826-0.289,1.527-0.351,1.569c-0.165,0.103-0.227,0.083-0.289-0.083L5.554,44.948z" fill="#888888"></path>

</svg>
